<svg width="32" height="32" viewBox="0 0 32 32" fill="none" xmlns="http://www.w3.org/2000/svg">
<circle cx="16" cy="16" r="16" fill="#1864AB"/>
<path d="M7 16C7 17.1819 7.23279 18.3522 7.68508 19.4442C8.13738 20.5361 8.80031 21.5282 9.63604 22.364C10.4718 23.1997 11.4639 23.8626 12.5558 24.3149C13.6478 24.7672 14.8181 25 16 25C17.1819 25 18.3522 24.7672 19.4442 24.3149C20.5361 23.8626 21.5282 23.1997 22.364 22.364C23.1997 21.5282 23.8626 20.5361 24.3149 19.4442C24.7672 18.3522 25 17.1819 25 16C25 13.6131 24.0518 11.3239 22.364 9.63604C20.6761 7.94821 18.3869 7 16 7C13.6131 7 11.3239 7.94821 9.63604 9.63604C7.94821 11.3239 7 13.6131 7 16Z" stroke="white" stroke-width="2" stroke-linecap="round" stroke-linejoin="round"/>
<path d="M16 11V16L19 19" stroke="white" stroke-width="2" stroke-linecap="round" stroke-linejoin="round"/>
</svg>
