<svg width="42" height="42" viewBox="0 0 42 42" fill="none" xmlns="http://www.w3.org/2000/svg">
<path d="M21 36.75C24.4946 36.7495 27.8898 35.5868 30.6511 33.4449C33.4123 31.303 35.3828 28.3036 36.2524 24.9189C37.1219 21.5342 36.841 17.9565 35.4541 14.7489C34.0671 11.5413 31.6527 8.88615 28.5911 7.20135C25.5294 5.51654 21.9944 4.89781 18.5425 5.44256C15.0906 5.98732 11.918 7.66462 9.52396 10.2104C7.12997 12.7562 5.65063 16.0259 5.31885 19.5047C4.98706 22.9835 5.82167 26.4739 7.69128 29.4263L5.25003 36.75L12.5738 34.3088C15.093 35.9077 18.0162 36.7546 21 36.75Z" stroke="#F59E0B" stroke-width="3" stroke-linecap="round" stroke-linejoin="round"/>
</svg>
