<svg width="42" height="34" viewBox="0 0 42 34" fill="none" xmlns="http://www.w3.org/2000/svg">
<path d="M6.11804 9.62299C6.11838 7.96384 6.54761 6.33296 7.36407 4.8886C8.18053 3.44424 9.35649 2.23546 10.7778 1.37956C12.1992 0.523659 13.8176 0.0497095 15.4761 0.00370191C17.1347 -0.0423057 18.7769 0.341191 20.2435 1.11698C21.7101 1.89276 22.9513 3.03449 23.8465 4.43137C24.7418 5.82825 25.2608 7.43283 25.3531 9.08941C25.4454 10.746 25.108 12.3983 24.3735 13.886C23.639 15.3737 22.5324 16.6463 21.161 17.5802C24.1142 18.6634 26.6756 20.6055 28.5157 23.1566C30.3557 25.7078 31.3902 28.7512 31.486 31.8952C31.482 32.2342 31.3471 32.5585 31.1095 32.8004C30.872 33.0422 30.5501 33.1829 30.2113 33.1931C29.8724 33.2033 29.5428 33.0821 29.2911 32.8549C29.0395 32.6277 28.8854 32.3121 28.861 31.974C28.7568 28.564 27.329 25.3287 24.8801 22.9535C22.4312 20.5783 19.1537 19.2499 15.7422 19.2499C12.3306 19.2499 9.05313 20.5783 6.60424 22.9535C4.15534 25.3287 2.7275 28.564 2.62329 31.974C2.60577 32.3167 2.45472 32.6389 2.20252 32.8716C1.95031 33.1043 1.617 33.229 1.27399 33.2189C0.930983 33.2088 0.605559 33.0648 0.367435 32.8177C0.129311 32.5707 -0.00257233 32.2401 3.80236e-05 31.897C0.0955029 28.7527 1.12985 25.7088 2.96994 23.1574C4.81003 20.6059 7.37164 18.6635 10.325 17.5802C9.02842 16.6972 7.96731 15.5106 7.23408 14.1237C6.50084 12.7368 6.11771 11.1918 6.11804 9.62299ZM15.743 2.62299C13.8865 2.62299 12.106 3.36049 10.7933 4.67325C9.48054 5.986 8.74304 7.76648 8.74304 9.62299C8.74304 11.4795 9.48054 13.26 10.7933 14.5727C12.106 15.8855 13.8865 16.623 15.743 16.623C17.5996 16.623 19.38 15.8855 20.6928 14.5727C22.0055 13.26 22.743 11.4795 22.743 9.62299C22.743 7.76648 22.0055 5.986 20.6928 4.67325C19.38 3.36049 17.5996 2.62299 15.743 2.62299ZM30.2505 9.62299C29.9927 9.62299 29.7395 9.64049 29.491 9.67549C29.3175 9.70656 29.1396 9.70236 28.9677 9.66315C28.7959 9.62394 28.6337 9.55052 28.4909 9.44727C28.348 9.34402 28.2274 9.21306 28.1363 9.06219C28.0451 8.91132 27.9853 8.74364 27.9604 8.56916C27.9355 8.39467 27.9459 8.21695 27.9912 8.0466C28.0364 7.87625 28.1155 7.71676 28.2238 7.57764C28.332 7.43852 28.4671 7.32263 28.6211 7.23687C28.7751 7.15111 28.9448 7.09725 29.12 7.07849C30.8605 6.82685 32.6353 7.16109 34.1651 8.02861C35.6948 8.89613 36.8926 10.2477 37.5701 11.8706C38.2475 13.4934 38.3661 15.2955 37.9072 16.9932C37.4483 18.6909 36.4379 20.1877 35.035 21.2482C37.0972 22.1716 38.8481 23.672 40.0766 25.5684C41.305 27.4647 41.9584 29.676 41.958 31.9355C41.958 32.2836 41.8198 32.6174 41.5736 32.8636C41.3275 33.1097 40.9936 33.248 40.6455 33.248C40.2974 33.248 39.9636 33.1097 39.7175 32.8636C39.4713 32.6174 39.333 32.2836 39.333 31.9355C39.3337 29.9825 38.7048 28.0814 37.5397 26.5141C36.3746 24.9467 34.7353 23.7967 32.865 23.2345L31.9305 22.9545V20.0215L32.648 19.6557C33.7116 19.117 34.5626 18.2355 35.0636 17.1537C35.5646 16.0718 35.6863 14.8527 35.4092 13.6931C35.1321 12.5335 34.4723 11.5011 33.5363 10.7626C32.6003 10.0242 31.4428 9.62268 30.2505 9.62299Z" fill="#EC4899"/>
</svg>
