<svg width="42" height="42" viewBox="0 0 42 42" fill="none" xmlns="http://www.w3.org/2000/svg">
<path d="M25.725 11.025C25.4043 11.3521 25.2247 11.7919 25.2247 12.25C25.2247 12.7081 25.4043 13.1479 25.725 13.475L28.525 16.275C28.8521 16.5956 29.2919 16.7752 29.75 16.7752C30.208 16.7752 30.6478 16.5956 30.975 16.275L36.4105 10.8412C36.9705 10.2777 37.9207 10.4562 38.1307 11.2227C38.6594 13.1458 38.6296 15.1796 38.0446 17.0863C37.4596 18.9929 36.3437 20.6936 34.8274 21.9892C33.3111 23.2847 31.4572 24.1217 29.4827 24.4021C27.5081 24.6825 25.4945 24.3947 23.6775 23.5725L9.83496 37.415C9.13877 38.1109 8.19462 38.5018 7.21022 38.5017C6.22582 38.5015 5.2818 38.1103 4.58584 37.4141C3.88988 36.7179 3.49898 35.7738 3.49915 34.7894C3.49931 33.805 3.89052 32.8609 4.58671 32.165L18.4292 18.3225C17.607 16.5055 17.3192 14.4919 17.5996 12.5173C17.88 10.5427 18.717 8.68883 20.0125 7.17257C21.3081 5.6563 23.0088 4.54038 24.9154 3.95539C26.8221 3.37039 28.8559 3.34051 30.779 3.86924C31.5455 4.07924 31.724 5.02774 31.1622 5.59124L25.725 11.025Z" stroke="#10B981" stroke-width="2" stroke-linecap="round" stroke-linejoin="round"/>
</svg>
