<svg width="42" height="42" viewBox="0 0 42 42" fill="none" xmlns="http://www.w3.org/2000/svg">
<g clip-path="url(#clip0_63_257)">
<path d="M25.585 4.65844C25.9171 4.75137 26.2277 4.90886 26.499 5.1219C26.7703 5.33494 26.9969 5.59934 27.1659 5.90001C27.3349 6.20068 27.443 6.53171 27.4841 6.87419C27.5251 7.21666 27.4982 7.56386 27.405 7.89594L19.6507 35.5232C19.4627 36.1936 19.0161 36.7619 18.4092 37.1031C17.8022 37.4442 17.0845 37.5303 16.4141 37.3423C15.7437 37.1543 15.1754 36.7077 14.8342 36.1008C14.493 35.4938 14.407 34.7761 14.595 34.1057L22.3492 6.47494C22.4423 6.14293 22.6 5.83253 22.8131 5.56145C23.0262 5.29038 23.2906 5.06394 23.5913 4.89509C23.8919 4.72624 24.2229 4.61828 24.5653 4.57737C24.9077 4.53647 25.2548 4.56342 25.5867 4.65669L25.585 4.65844ZM13.23 11.7197C13.7215 12.2119 13.9977 12.8791 13.9977 13.5747C13.9977 14.2703 13.7215 14.9375 13.23 15.4297L7.66497 20.9999L13.2335 26.5684C13.7257 27.0609 14.0021 27.7287 14.0019 28.4249C14.0018 29.1212 13.725 29.7889 13.2326 30.2811C12.7402 30.7733 12.0724 31.0497 11.3761 31.0495C10.6798 31.0494 10.0122 30.7726 9.51997 30.2802L2.09472 22.8549C1.60314 22.3628 1.32703 21.6956 1.32703 20.9999C1.32703 20.3043 1.60314 19.6371 2.09472 19.1449L9.51822 11.7197C9.76199 11.4758 10.0514 11.2823 10.37 11.1502C10.6886 11.0182 11.0301 10.9503 11.375 10.9503C11.7198 10.9503 12.0613 11.0182 12.3799 11.1502C12.6985 11.2823 12.9862 11.4758 13.23 11.7197ZM28.77 15.4297C28.5121 15.1894 28.3052 14.8996 28.1617 14.5776C28.0183 14.2556 27.9411 13.908 27.9349 13.5555C27.9287 13.2031 27.9935 12.853 28.1255 12.5261C28.2576 12.1992 28.4541 11.9023 28.7033 11.6531C28.9526 11.4038 29.2495 11.2073 29.5764 11.0753C29.9032 10.9432 30.2533 10.8784 30.6058 10.8846C30.9583 10.8908 31.3059 10.968 31.6278 11.1115C31.9498 11.2549 32.2396 11.4618 32.48 11.7197L39.9052 19.1432C40.3973 19.6355 40.6738 20.303 40.6738 20.9991C40.6738 21.6951 40.3973 22.3627 39.9052 22.8549L32.4817 30.2802C32.238 30.524 31.9486 30.7175 31.6302 30.8495C31.3117 30.9815 30.9703 31.0495 30.6256 31.0495C30.2808 31.0496 29.9394 30.9818 29.6209 30.8499C29.3024 30.7181 29.0129 30.5248 28.7691 30.2811C28.5253 30.0373 28.3318 29.748 28.1998 29.4295C28.0678 29.111 27.9998 28.7697 27.9997 28.4249C27.9997 28.0802 28.0675 27.7388 28.1993 27.4203C28.3312 27.1017 28.5245 26.8123 28.7682 26.5684L34.3367 20.9999L28.77 15.4297Z" fill="#1864AB"/>
</g>
<defs>
<clipPath id="clip0_63_257">
<rect width="42" height="42" fill="white"/>
</clipPath>
</defs>
</svg>
